<?xml version="1.0" ?><!DOCTYPE svg  PUBLIC '-//W3C//DTD SVG 1.0//EN'
  'http://www.w3.org/TR/2001/REC-SVG-20010904/DTD/svg10.dtd'>
<svg height="62px" style="shape-rendering:geometricPrecision; text-rendering:geometricPrecision; image-rendering:optimizeQuality; fill-rule:evenodd; clip-rule:evenodd" version="1.0" viewBox="0 0 13839 13406" width="64px" xml:space="preserve" xmlns="http://www.w3.org/2000/svg" xmlns:xlink="http://www.w3.org/1999/xlink"><defs><style type="text/css">
   <![CDATA[
    .fil0 {fill:#27afb7;fill-rule:nonzero}
   ]]>
  </style></defs><g id="Layer_x0020_1"><path class="fil0" d="M8142 5600c442,130 825,402 1095,763 264,352 421,789 421,1260l0 1892 0 216 -216 0 -5045 0 -216 0 0 -216 0 -1892c0,-470 157,-907 421,-1260 270,-360 653,-633 1095,-763l121 -35 91 88c133,129 291,233 466,304 168,68 352,106 545,106 194,0 378,-38 545,-106 175,-71 333,-175 466,-304l90 -88 121 35zm2067 5428c-119,0 -216,-97 -216,-216 0,-119 97,-216 216,-216l1730 0 216 0 0 216 0 1730c0,119 -97,216 -216,216 -119,0 -216,-97 -216,-216l0 -1164c-554,570 -1210,1041 -1938,1386 -870,412 -1842,643 -2866,643 -1024,0 -1996,-231 -2866,-643 -903,-428 -1696,-1052 -2321,-1815 -76,-92 -62,-229 30,-304 92,-76 229,-62 304,30 586,716 1327,1299 2171,1699 812,385 1722,600 2682,600 960,0 1870,-216 2682,-600 700,-332 1330,-790 1859,-1346l-1251 0zm-6533 -8649c119,0 216,97 216,216 0,119 -97,216 -216,216l-1730 0 -41 0 -5 0 -5 0 -165 0 0 -82c-61,-77 -64,-189 0,-269l0 -1596c0,-119 97,-216 216,-216 119,0 216,97 216,216l0 1116c544,-548 1184,-1003 1891,-1338 870,-412 1842,-643 2866,-643 1024,0 1996,231 2866,643 903,428 1696,1052 2321,1816 76,92 62,229 -30,304 -92,76 -229,62 -304,-30 -586,-716 -1327,-1299 -2171,-1699 -812,-385 -1722,-600 -2682,-600 -960,0 -1870,216 -2682,600 -700,332 -1330,790 -1858,1346l1297 0zm8464 3106c264,0 503,107 676,280l1 1c173,173 280,412 280,676 0,264 -107,504 -280,677 22,-1 44,2 66,9 278,82 520,254 690,480 167,222 266,497 266,794l0 1112 0 216 -216 0 -2966 0 -216 0 0 -216 0 -1112c0,-296 99,-572 266,-794 170,-227 412,-399 690,-480 22,-7 45,-9 67,-9l-1 -1c-173,-174 -281,-413 -281,-676 0,-265 108,-504 281,-677 173,-173 413,-280 677,-280zm476 1789c-140,80 -303,127 -476,127 -173,0 -336,-46 -477,-128l0 1c33,114 -32,234 -146,268 -188,55 -351,172 -466,325 -111,149 -178,334 -178,535l0 896 205 0 -2 -418c0,-119 96,-216 215,-216 119,0 216,96 216,215l2 420 1264 0 -2 -418c0,-119 96,-216 215,-216 119,0 216,96 216,215l2 420 203 0 0 -896c0,-201 -67,-387 -178,-535 -115,-153 -279,-270 -466,-325 -114,-33 -180,-153 -146,-268l0 0zm-104 -1203c-95,-94 -227,-153 -372,-153 -145,0 -277,59 -371,154 -95,95 -154,227 -154,371 0,146 59,277 153,371l1 1c94,94 226,153 371,153 145,0 276,-59 371,-154 95,-95 154,-226 154,-371 0,-145 -59,-277 -153,-372zm-10812 -586c264,0 503,107 676,280l1 1c173,173 280,412 280,676 0,264 -107,504 -280,677 22,-1 44,2 66,9 278,82 520,254 690,480 167,222 266,497 266,794l0 1112 0 216 -216 0 -2966 0 -216 0 0 -216 0 -1112c0,-296 99,-572 266,-794 170,-227 412,-399 690,-480 22,-7 45,-9 67,-9l-1 -1c-173,-174 -281,-413 -281,-676 0,-265 108,-504 281,-677 173,-173 413,-280 677,-280zm476 1789c-140,80 -303,127 -476,127 -173,0 -336,-46 -477,-128l0 1c33,114 -32,234 -146,268 -188,55 -351,172 -466,325 -111,149 -178,334 -178,535l0 896 205 0 -2 -418c0,-119 96,-216 215,-216 119,0 216,96 216,215l2 420 1264 0 -2 -418c0,-119 96,-216 215,-216 119,0 216,96 216,215l2 420 203 0 0 -896c0,-201 -67,-387 -178,-535 -115,-153 -279,-270 -466,-325 -114,-33 -180,-153 -146,-268l0 0zm-104 -1203c-95,-94 -227,-153 -372,-153 -145,0 -277,59 -371,154 -95,95 -154,227 -154,371 0,146 59,277 153,371l1 1c94,94 226,153 371,153 145,0 276,-59 371,-154 95,-95 154,-226 154,-371 0,-145 -59,-277 -153,-372zm4848 -3259c407,0 777,166 1044,433l1 1c267,267 433,637 433,1044 0,408 -166,778 -433,1045 -267,267 -637,433 -1045,433 -407,0 -776,-165 -1044,-433l-1 -1c-267,-268 -433,-637 -433,-1044 0,-408 166,-778 433,-1045 267,-267 637,-433 1045,-433zm740 738c-189,-188 -451,-305 -740,-305 -289,0 -550,117 -739,306 -189,189 -306,450 -306,739 0,289 117,551 305,739l1 1c188,188 450,305 739,305 289,0 550,-117 739,-306 189,-189 306,-450 306,-739 0,-289 -117,-551 -305,-740zm488 5749l-5 -864c0,-119 96,-216 215,-216 119,0 216,96 216,215l5 865 648 0 0 -1676c0,-375 -124,-722 -334,-1001 -192,-256 -456,-456 -760,-570 -150,127 -321,231 -505,305 -219,89 -458,138 -707,138 -250,0 -489,-49 -707,-138 -184,-75 -355,-179 -505,-305 -304,114 -568,314 -760,570 -209,279 -334,626 -334,1001l0 1676 651 0 -5 -864c0,-119 96,-216 215,-216 119,0 216,96 216,215l5 865 2452 0z"/></g></svg>
