<?xml version="1.0" ?><!DOCTYPE svg  PUBLIC '-//W3C//DTD SVG 1.0//EN'  'http://www.w3.org/TR/2001/REC-SVG-20010904/DTD/svg10.dtd'><svg height="54px" style="shape-rendering:geometricPrecision; text-rendering:geometricPrecision; image-rendering:optimizeQuality; fill-rule:evenodd; clip-rule:evenodd" version="1.0" viewBox="0 0 9662 8153" width="64px" xml:space="preserve" xmlns="http://www.w3.org/2000/svg" xmlns:xlink="http://www.w3.org/1999/xlink"><defs><style type="text/css">
   <![CDATA[
    .fil0 {fill:#27afb7;fill-rule:nonzero}
   ]]>
  </style></defs><g id="Layer_x0020_1"><path class="fil0" d="M1811 1818l0 -1516 -453 0c-83,0 -151,-68 -151,-151 0,-83 68,-151 151,-151l8152 0c83,0 151,68 151,151 0,83 -68,151 -151,151l-303 0 0 5134 0 151 -151 0 -2774 0 1102 2352c35,75 2,165 -73,200 -75,35 -165,2 -200,-73l-1162 -2479 -728 0 -1162 2479c-35,75 -125,108 -200,73 -75,-35 -108,-125 -73,-200l1102 -2352 -1067 0 0 906 0 151 -151 0 -3522 0 -151 0 0 -151 0 -1321c0,-328 110,-633 294,-879 188,-252 456,-442 764,-532l84 -25 63 61c93,90 203,163 325,212 88,36 182,59 280,69l0 -206c-245,-24 -465,-133 -629,-297 -186,-186 -302,-444 -302,-729 0,-284 116,-542 302,-729l1 -1c164,-164 384,-273 628,-297zm4227 -158c-83,0 -151,-68 -151,-151 0,-83 68,-151 151,-151l1057 0c8,0 16,1 23,2l0 0c9,1 17,3 25,6l0 0 17 7 1 0 3 1 1 0 3 2 0 0 3 2 0 0 3 2 0 0 3 2 0 0 3 2 0 0 6 4 0 0 3 2 0 0 3 2 0 0 3 2 0 0 2 2 0 1 2 2 1 1 8 8 1 1 1 1 1 1 1 2 9 12 1 1 2 3 0 0 3 6 0 0 3 6 0 0 1 3 0 0 1 3 0 0 1 3 0 0 2 7 0 0 3 10 0 0c3,12 5,25 5,38l0 4 0 902c0,83 -68,151 -151,151 -83,0 -151,-68 -151,-151l0 -570 -988 878 491 491 -1 1 6 6c55,62 50,157 -12,212l-1434 1283c-62,55 -157,50 -212,-12 -55,-62 -50,-157 12,-212l1315 -1177 -492 -492c-59,-59 -59,-155 0,-214l13 -11 1056 -938 -660 0zm-402 944l6 -6m-3529 -2297l0 1531c204,40 387,141 528,282 186,186 302,445 302,730 0,284 -116,542 -302,729l-1 1c-142,141 -324,242 -527,282l0 206c62,-12 122,-30 179,-54 122,-50 233,-122 325,-212l63 -61 84 25c308,91 576,281 764,532 184,246 294,551 294,879l0 113 5082 0 0 -4983 -6793 0zm314 2027c-132,-132 -314,-214 -516,-214 -202,0 -384,82 -516,213 -132,132 -213,315 -213,516 0,201 82,384 214,516 132,132 314,214 516,214 202,0 384,-82 516,-213l1 -1c131,-131 213,-314 213,-516 0,-201 -82,-384 -214,-516zm341 4013l-3 -603c0,-83 67,-151 150,-151 83,0 151,67 151,150l3 604 452 0 0 -1170c0,-262 -87,-504 -233,-699 -134,-179 -318,-318 -530,-398 -105,89 -224,161 -353,213 -153,62 -320,96 -494,96 -174,0 -341,-34 -494,-96 -129,-52 -248,-125 -353,-213 -212,79 -397,219 -530,398 -146,195 -233,437 -233,699l0 1170 455 0 -3 -603c0,-83 67,-151 150,-151 83,0 151,67 151,150l3 604 1712 0z"/></g></svg>
