<?xml version="1.0" ?><!DOCTYPE svg  PUBLIC '-//W3C//DTD SVG 1.0//EN'  'http://www.w3.org/TR/2001/REC-SVG-20010904/DTD/svg10.dtd'><svg height="64px" style="shape-rendering:geometricPrecision; text-rendering:geometricPrecision; image-rendering:optimizeQuality; fill-rule:evenodd; clip-rule:evenodd" version="1.0" viewBox="0 0 13838 13838" width="64px" xml:space="preserve" xmlns="http://www.w3.org/2000/svg" xmlns:xlink="http://www.w3.org/1999/xlink"><defs><style type="text/css">
   <![CDATA[
    .fil0 {fill:#27afb7;fill-rule:nonzero}
   ]]>
  </style></defs><g id="Layer_x0020_1"><path class="fil0" d="M8917 3190c210,72 412,154 607,246 279,133 543,286 788,456l2 2 108 77 1 1c299,-144 634,-243 1010,-293 118,-15 226,68 242,186 2,17 2,35 1,52l0 0 -132 1189c116,164 220,335 311,509 92,177 173,362 240,554 133,98 289,173 456,225l0 0c209,65 430,96 639,94l1 0c156,-1 299,0 431,91 136,94 219,257 219,556l0 1629 0 87 -62 63c-268,275 -683,580 -1216,910 -518,321 -1151,667 -1869,1032 -84,71 -173,140 -266,208 -60,44 -120,87 -181,128l230 1681c23,170 -5,369 -132,548 -96,136 -247,258 -473,343 -225,84 -414,89 -570,47l0 0c-212,-57 -357,-196 -445,-337l0 0 -871 -1387c-148,26 -300,46 -456,61 -206,20 -410,30 -611,30 -201,0 -405,-10 -611,-30 -156,-15 -308,-35 -456,-61l-871 1387 0 0c-88,141 -232,280 -445,337l0 0c-156,42 -345,37 -570,-47 -226,-85 -378,-207 -473,-343 -127,-179 -155,-378 -132,-548l230 -1682c-623,-420 -1137,-956 -1498,-1570 -372,-633 -581,-1347 -581,-2102 0,-247 22,-490 65,-727 -50,17 -100,31 -149,42 -36,46 -77,91 -123,131 -145,127 -339,216 -589,233 -163,11 -351,-10 -563,-72 -114,-33 -180,-153 -146,-268 33,-114 153,-180 268,-146 161,47 298,63 413,55 22,-2 43,-4 64,-7 -47,-24 -90,-51 -130,-81 -118,-91 -203,-211 -240,-347l0 0c-37,-135 -27,-280 40,-420l1 0c81,-169 202,-273 338,-324 113,-43 233,-48 347,-21l0 1c108,25 212,78 296,152 125,110 214,268 227,452 3,40 3,81 0,123 25,-13 51,-20 78,-22 172,-535 453,-1032 819,-1472 598,-716 1427,-1280 2392,-1611 -142,-293 -222,-622 -222,-969 0,-613 249,-1169 650,-1570 401,-401 957,-650 1570,-650 613,0 1169,249 1570,650 401,401 650,957 650,1570 0,348 -80,676 -222,970zm1095 1020c-212,-143 -437,-272 -672,-384 -210,-100 -430,-187 -655,-260 -60,79 -126,154 -196,224 -45,45 -93,89 -142,130l47 15c166,54 324,121 467,201l-209 376c-116,-64 -248,-120 -391,-167 -133,-43 -274,-79 -419,-106 -281,128 -594,200 -923,200 -318,0 -621,-67 -895,-188 -155,29 -302,65 -437,106 -149,45 -288,99 -410,160l-191 -387c141,-70 302,-132 476,-185l45 -13c-55,-45 -107,-93 -157,-143 -70,-70 -136,-145 -196,-224 -929,300 -1726,832 -2293,1511 -575,689 -913,1533 -913,2442 0,678 187,1318 520,1884 348,593 856,1107 1474,1501l116 75 -18 136 -248 1816c-10,76 2,164 57,242 50,70 136,137 271,188 130,49 231,54 308,33l1 0c87,-23 149,-85 188,-147l1 -1 949 -1512 79 -126 145 29c186,37 374,65 560,83 181,17 372,27 570,27 198,0 389,-9 571,-27 186,-18 374,-46 560,-82l145 -29 79 126 949 1512 1 1c39,63 101,124 188,147l1 0c77,20 178,16 308,-33 135,-51 221,-117 271,-188 55,-78 67,-167 57,-242l-248 -1816 -19 -137 117 -74c97,-61 188,-124 274,-187 87,-64 174,-133 260,-206l18 -16 24 -12c719,-365 1350,-709 1861,-1026 462,-286 827,-549 1072,-783l0 -1540c0,-133 -13,-188 -33,-202 -23,-16 -98,-16 -181,-15l-1 0c-255,2 -521,-34 -771,-113l-1 0c-233,-74 -456,-186 -644,-339l-49 -40 -20 -59c-63,-188 -142,-373 -236,-554l-5 -9 -6 58c-13,118 -120,204 -238,191 -118,-13 -204,-120 -191,-238l185 -1660c-283,62 -536,160 -762,288 -296,168 -550,393 -769,666 -75,93 -210,108 -303,33 -93,-75 -108,-210 -33,-303 196,-243 417,-454 666,-628zm-2877 -1039l0 581c0,119 -97,216 -216,216 -119,0 -216,-97 -216,-216l0 -571c-24,-5 -48,-11 -72,-18l-7 -2c-235,-73 -432,-243 -489,-526 -23,-117 53,-231 170,-254 117,-23 231,53 254,170 20,102 96,166 187,196l10 3c48,15 101,21 154,20l3 0 0 0 30 -2c63,-5 123,-21 172,-46 61,-31 104,-76 104,-129 0,-45 -9,-74 -22,-92 -17,-23 -49,-39 -82,-49 -59,-18 -126,-17 -192,-16 -100,2 -201,4 -325,-34l0 0c-98,-30 -198,-83 -276,-171l1 0c-81,-92 -135,-217 -135,-382 0,-237 142,-413 342,-514 54,-27 112,-49 173,-65l0 -469c0,-119 97,-216 216,-216 119,0 216,97 216,216l0 459c24,5 48,11 71,18 239,71 440,242 497,528 23,117 -53,231 -170,254 -117,23 -231,-53 -254,-170 -21,-105 -101,-171 -196,-199 -46,-14 -97,-20 -148,-20l-1 0 -3 0 -13 1 -3 0 -3 0 -18 1c-63,5 -123,21 -172,46 -61,31 -104,76 -104,129 0,49 10,79 26,97l0 0 1 0c18,21 48,35 77,44l1 0 0 0c59,18 126,17 191,16 100,-2 200,-3 324,34 110,33 222,95 303,205 66,88 108,203 108,349 0,237 -142,413 -342,514 -54,27 -113,49 -173,65zm1048 -2215c-323,-323 -770,-524 -1264,-524 -494,0 -941,200 -1264,524 -323,323 -524,770 -524,1264 0,494 200,941 524,1264 323,323 770,524 1264,524 494,0 941,-200 1264,-524 323,-323 524,-770 524,-1264 0,-494 -200,-941 -524,-1264zm-7085 5466c22,3 45,5 69,6l12 -37c19,-66 26,-132 22,-191 -4,-62 -36,-117 -80,-156 -32,-28 -70,-48 -108,-57l-2 0c-33,-8 -67,-7 -97,4 -37,14 -74,48 -101,106l1 0c-20,43 -25,85 -15,120l0 1c12,43 43,85 88,120 53,41 125,71 211,84zm9064 -151c178,0 340,73 458,190l1 1c117,117 190,279 190,458 0,178 -73,341 -191,458l1 1c-117,117 -279,190 -459,190 -179,0 -342,-73 -459,-190 -117,-117 -190,-280 -190,-459 0,-179 73,-342 190,-459l1 1c117,-118 280,-191 458,-191zm153 495c-38,-38 -92,-62 -153,-62 -60,0 -114,24 -153,62l0 1c-39,39 -63,93 -63,153 0,60 25,114 63,153 39,39 93,63 153,63 60,0 114,-25 153,-63l1 0c38,-38 62,-93 62,-153 0,-60 -24,-114 -62,-153l-1 -1z"/></g></svg>