<?xml version="1.0" ?><!DOCTYPE svg  PUBLIC '-//W3C//DTD SVG 1.0//EN'  'http://www.w3.org/TR/2001/REC-SVG-20010904/DTD/svg10.dtd'><svg height="64px" style="shape-rendering:geometricPrecision; text-rendering:geometricPrecision; image-rendering:optimizeQuality; fill-rule:evenodd; clip-rule:evenodd" version="1.0" viewBox="0 0 21127 26002" width="52px" xml:space="preserve" xmlns="http://www.w3.org/2000/svg" xmlns:xlink="http://www.w3.org/1999/xlink"><defs><style type="text/css">
   <![CDATA[
    .fil0 {fill:#27afb7;fill-rule:nonzero}
   ]]>
  </style></defs><g id="Layer_x0020_1"><path class="fil0" d="M406 0l11 0 20303 0c224,0 406,182 406,406l0 11 0 3229 0 21 0 21929c0,224 -182,406 -406,406l-11 0 -20303 0c-224,0 -406,-182 -406,-406l0 -11 0 -21918 0 -21 0 -3239c0,-224 182,-406 406,-406zm7313 23157l5271 0 0 813 -5271 0 0 -813zm6907 0l3250 0 0 813 -3250 0 0 -813zm-11376 0l2835 0 0 813 -2835 0 0 -813zm2437 -21532l812 0 0 813 -812 0 0 -813zm-2031 0l812 0 0 813 -812 0 0 -813zm-2031 0l812 0 0 813 -812 0 0 -813zm18689 2438l-19501 0 0 21126 19501 0 0 -21126zm-19501 -813l19501 0 0 -2437 -19501 0 0 2437zm12188 17878l3656 0 0 813 -3656 0 0 -813zm-9750 0l7312 0 0 813 -7312 0 0 -813zm7312 -2032l7313 0 0 813 -7313 0 0 -813zm-7313 0l5282 0 0 813 -5282 0 0 -813zm7869 -11476c46,-219 262,-359 481,-313 219,46 359,262 313,481l-1907 8898c-46,219 -262,359 -481,313 -219,-46 -359,-262 -313,-481l1907 -8898zm2060 1660c-174,-140 -202,-395 -62,-570 140,-174 395,-202 570,-62l3850 3083c174,140 202,395 62,570 -19,24 -40,45 -64,64l-3838 3285c-170,145 -426,126 -571,-44 -145,-170 -126,-426 44,-571l3478 -2977 -3469 -2778zm-5740 -631c174,-140 429,-112 570,62 140,174 112,429 -62,570l-3469 2778 3478 2977c170,145 190,401 44,571 -145,170 -401,190 -571,44l-3838 -3285c-24,-19 -45,-40 -64,-64 -140,-174 -112,-429 62,-570l3850 -3083z"/></g></svg>