<?xml version="1.0" ?><!DOCTYPE svg  PUBLIC '-//W3C//DTD SVG 1.0//EN'  'http://www.w3.org/TR/2001/REC-SVG-20010904/DTD/svg10.dtd'><svg height="64px" style="shape-rendering:geometricPrecision; text-rendering:geometricPrecision; image-rendering:optimizeQuality; fill-rule:evenodd; clip-rule:evenodd" version="1.0" viewBox="0 0 2927 5509" width="34px" xml:space="preserve" xmlns="http://www.w3.org/2000/svg" xmlns:xlink="http://www.w3.org/1999/xlink"><defs><style type="text/css">
   <![CDATA[
    .fil0 {fill:#27afb7;fill-rule:nonzero}
   ]]>
  </style></defs><g id="Layer_x0020_1"><path class="fil0" d="M2824 105c33,34 33,88 -1,121m-1183 4998c-34,28 -84,26 -115,-6m-1171 -5218l2221 0c97,0 185,40 249,104l0 0 0 0 0 1c64,64 103,152 103,248l0 508 0 4 0 1382 0 2 0 2 0 2051 0 2 0 2 0 337 0 2 0 2 0 508c0,97 -40,186 -104,249 -64,64 -152,103 -249,103l-2221 0c-97,0 -185,-40 -249,-103l0 0c-64,-64 -103,-152 -103,-249l0 -508 0 -2 0 -2 0 -3779 0 -4 0 -508c0,-97 40,-186 103,-249 64,-64 152,-104 249,-104zm2402 2343c-86,17 -162,58 -221,116 -77,76 -125,182 -125,302 0,118 48,224 125,301 59,59 135,101 221,117l0 -837zm0 1011c-133,-18 -252,-80 -343,-170 -108,-108 -175,-258 -175,-423 0,-167 67,-316 176,-424 90,-89 209,-150 342,-168l0 -878 -181 1 -50 438 0 0c-4,30 -23,58 -53,70l-23 9 -4 2 -29 12 0 0c-27,11 -59,9 -84,-9l-352 -256 -346 346 253 349c19,24 25,57 12,88l-12 29 -10 27 0 0c-11,27 -35,49 -67,53l-429 68 0 490 429 68c29,5 55,24 67,53l10 25 1 2 12 29c11,27 9,59 -9,84l-256 352 346 346 349 -253c24,-19 57,-25 88,-12l29 12 0 0 22 9c31,10 55,38 59,72l50 426 182 0 0 -865zm0 1037l-258 0c-46,0 -84,-36 -86,-82l-48 -412 -344 250c-35,25 -82,21 -111,-9l0 0 -450 -450c-32,-32 -33,-82 -5,-116l248 -342 -423 -67c-42,-7 -73,-43 -73,-85l0 0 0 -636c0,-46 36,-83 81,-86l415 -65 -252 -347c-25,-35 -21,-82 9,-111l0 0 450 -450c32,-32 82,-33 116,-5l338 246 49 -428c5,-46 46,-79 91,-76l252 -2 0 -170 -2582 0 0 3611 2582 0 0 -169zm0 341l-2582 0 0 424c0,50 20,95 53,128l0 0c33,33 78,53 128,53l2221 0c50,0 95,-20 127,-53 33,-33 53,-78 53,-128l0 -424zm-2582 -3956l2582 0 0 -424c0,-50 -20,-95 -53,-127l0 0c-32,-32 -78,-53 -127,-53l-2221 0c-50,0 -95,20 -128,53 -33,33 -53,78 -53,127l0 424zm904 -174c-47,0 -86,-39 -86,-86 0,-47 39,-86 86,-86l741 0c47,0 86,39 86,86 0,47 -39,86 -86,86l-741 0zm387 4175c71,0 136,29 183,76 47,47 76,111 76,183 0,71 -29,136 -76,183l-6 6c-46,43 -108,70 -176,70 -71,0 -135,-29 -182,-76l0 0c-47,-47 -76,-111 -76,-182 0,-71 29,-136 76,-182l0 0c47,-47 111,-76 183,-76zm61 197c-15,-15 -37,-25 -61,-25 -24,0 -45,10 -61,25l0 0 0 0c-15,15 -25,37 -25,61 0,24 10,46 25,61l0 0c15,15 37,25 61,25 22,0 43,-8 58,-22l3 -3c15,-15 25,-37 25,-61 0,-24 -10,-45 -25,-61z"/></g></svg>