<?xml version="1.0" standalone="no"?>
<!DOCTYPE svg PUBLIC "-//W3C//DTD SVG 20010904//EN"
 "http://www.w3.org/TR/2001/REC-SVG-20010904/DTD/svg10.dtd">
<svg version="1.0" xmlns="http://www.w3.org/2000/svg"
 width="1280.000000pt" height="1280.000000pt" viewBox="0 0 1280.000000 1280.000000"
 preserveAspectRatio="xMidYMid meet">
<metadata>
Created by potrace 1.11, written by Peter Selinger 2001-2013
</metadata>
<g transform="translate(0.000000,1280.000000) scale(0.100000,-0.100000)"
fill="white" stroke="none">
<path d="M6128 12575 c-2 -1 -122 -6 -268 -10 -146 -4 -283 -8 -305 -10 -22
-1 -107 -6 -190 -10 -82 -4 -166 -8 -185 -10 -19 -2 -82 -6 -140 -10 -58 -4
-121 -8 -140 -10 -19 -2 -73 -6 -120 -10 -47 -3 -101 -8 -120 -10 -19 -2 -64
-7 -100 -10 -109 -11 -381 -42 -435 -50 -16 -2 -92 -14 -169 -25 -881 -131
-1420 -313 -1905 -644 -357 -244 -709 -619 -957 -1019 -172 -276 -342 -639
-439 -932 -85 -259 -201 -807 -265 -1245 -5 -36 -12 -81 -14 -100 -3 -19 -10
-73 -16 -120 -6 -47 -13 -101 -15 -120 -27 -208 -63 -581 -71 -735 -3 -60 -7
-128 -9 -150 -23 -227 -23 -1680 0 -1910 2 -22 6 -85 10 -140 3 -55 8 -120 10
-145 3 -25 9 -101 15 -170 9 -106 38 -363 54 -490 9 -64 35 -245 40 -275 3
-16 15 -86 26 -155 49 -289 148 -736 206 -930 183 -609 527 -1206 942 -1634
361 -372 764 -627 1262 -799 144 -50 491 -141 620 -163 14 -2 45 -9 70 -14
126 -27 501 -85 705 -110 50 -6 104 -13 120 -15 78 -10 314 -35 475 -50 91 -8
139 -12 265 -20 61 -4 117 -9 125 -10 8 -2 89 -6 180 -10 91 -4 181 -8 200
-10 73 -7 605 -18 845 -18 224 0 776 11 880 18 22 1 103 6 180 10 77 4 151 9
165 10 14 2 79 6 145 10 66 4 127 9 135 10 8 2 58 6 110 10 52 4 102 8 110 10
8 1 53 6 100 10 47 4 92 9 100 10 8 1 44 6 80 10 36 3 76 8 90 10 14 2 50 7
80 10 163 18 553 82 745 121 840 172 1367 436 1865 934 283 282 515 611 715
1009 195 390 289 685 405 1263 29 145 94 517 105 603 2 22 12 92 20 155 19
144 22 162 35 285 6 55 13 118 15 140 2 22 7 74 10 115 3 41 8 89 10 105 2 17
7 75 10 130 4 55 8 125 10 155 25 371 25 1826 0 2110 -2 25 -9 104 -15 175 -6
72 -13 153 -15 180 -3 28 -7 70 -10 95 -2 25 -7 74 -10 110 -15 158 -69 554
-104 765 -80 467 -170 839 -267 1098 -356 953 -980 1682 -1757 2052 -459 218
-970 339 -1952 460 -58 7 -427 43 -515 50 -41 3 -91 8 -110 10 -19 2 -91 7
-160 10 -69 3 -141 8 -160 10 -19 2 -107 7 -195 10 -88 4 -176 9 -195 11 -42
4 -957 13 -962 9z m994 -4099 c150 -52 285 -99 300 -104 l26 -11 -128 -378
c-152 -447 -245 -721 -305 -893 -24 -69 -73 -213 -110 -320 -37 -107 -84 -244
-105 -305 -51 -147 -294 -848 -313 -905 -9 -25 -50 -144 -92 -265 -42 -121
-96 -276 -120 -345 -40 -115 -166 -478 -202 -577 -8 -24 -21 -43 -29 -43 -7 0
-37 9 -66 19 -29 11 -161 57 -293 101 -132 45 -244 86 -249 90 -8 8 36 144
220 675 47 138 112 327 144 420 60 174 173 500 332 960 49 143 114 330 143
415 29 85 90 261 135 390 45 129 105 305 135 390 197 570 263 758 270 770 3 5
12 10 20 10 7 0 136 -42 287 -94z m-2441 -789 c9 -12 64 -88 122 -170 132
-183 227 -323 227 -336 0 -5 -24 -26 -52 -47 -29 -21 -197 -141 -373 -268
-429 -308 -495 -356 -495 -365 0 -4 30 -32 68 -62 37 -29 69 -56 72 -59 3 -3
93 -75 200 -160 107 -85 197 -157 200 -160 3 -3 94 -76 203 -163 l197 -159
-22 -31 c-71 -102 -361 -471 -378 -482 -10 -6 -134 91 -535 415 -449 364 -584
473 -805 654 -135 111 -253 208 -263 217 -18 16 -17 18 15 43 57 45 477 354
572 421 23 17 145 104 270 195 125 91 253 183 284 206 383 275 466 334 471
334 3 0 13 -11 22 -23z m3630 -109 c523 -367 1459 -1045 1459 -1056 0 -4 -17
-21 -38 -38 -34 -28 -846 -686 -1355 -1097 -119 -97 -214 -166 -222 -164 -30
12 -415 475 -415 500 0 7 34 39 76 71 41 33 83 67 93 75 11 9 36 30 57 46 58
45 443 355 582 468 67 55 122 103 122 107 0 7 -112 94 -170 132 -14 9 -159
112 -322 230 -164 117 -329 235 -368 262 l-70 50 17 25 c26 41 314 443 342
478 14 17 29 32 32 32 4 1 85 -54 180 -121z"/>
</g>
</svg>
